<?xml version="1.0" encoding="UTF-8"?>
<svg id="Camada_2" data-name="Camada 2" xmlns="http://www.w3.org/2000/svg" xmlns:xlink="http://www.w3.org/1999/xlink" viewBox="0 0 205.05 200">
  <defs>
    <style>
      .cls-1 {
        fill: url(#Gradiente_sem_nome_15);
        stroke-width: 0px;
      }
    </style>
    <linearGradient id="Gradiente_sem_nome_15" data-name="Gradiente sem nome 15" x1="0" y1="100" x2="205.05" y2="100" gradientUnits="userSpaceOnUse">
      <stop offset="0" stop-color="#f0c"/>
      <stop offset="1" stop-color="#a259ff"/>
    </linearGradient>
  </defs>
  <g id="Camada_1-2" data-name="Camada 1">
    <path class="cls-1" d="M0,95.96c.52-3.75.96-7.5,1.56-11.24,2.36-14.66,7.98-28.01,16.36-40.21C30.6,26.06,47.6,13.14,68.65,5.63,82.93.54,97.7-.9,112.79.51c18.8,1.76,35.71,8.4,50.81,19.63,18.37,13.66,30.79,31.57,37.33,53.49,4.2,14.07,5.1,28.46,3.08,42.98-3.99,28.63-18.21,51.28-40.98,68.7-8.26,6.32-17.56,10.84-27.4,14.2-4.52,1.54-7.57-.62-7.59-5.38-.04-8.87.01-17.75-.02-26.62-.02-4.42-.26-8.85-2.19-12.91-1.13-2.37-2.69-4.54-4.07-6.81,3.74-.7,7.81-1.22,11.74-2.23,10.44-2.69,19.8-7.32,26.13-16.49,4.61-6.67,6.74-14.31,7.68-22.27.71-6.04.92-12.1-.24-18.13-1.29-6.7-4.18-12.62-8.67-17.75-.81-.93-.95-1.69-.55-2.83,2.95-8.43,1.81-16.68-1.32-24.79-.19-.5-1.04-.97-1.63-1.05-3.56-.5-6.93.5-10.06,1.98-5.17,2.44-10.17,5.24-15.29,7.78-.91.45-2.18.74-3.13.5-15.98-3.99-31.93-4-47.91.02-.94.24-2.28-.03-3.11-.56-6.51-4.14-13.38-7.45-20.86-9.42-.13-.03-.25-.08-.38-.11-4.78-1.01-5.63-.47-7.01,4.23-2.13,7.28-2.51,14.54.04,21.82.21.59.02,1.61-.39,2.07-8.6,9.78-10.55,21.35-9.38,33.84.69,7.31,2.41,14.31,5.69,20.89,4.62,9.27,12.43,14.94,21.88,18.21,5.62,1.94,11.63,2.76,17.46,4.08.31.07.62.1.67.11-1.49,2.71-3.03,5.39-4.44,8.14-.48.93-.84,2.02-.88,3.05-.09,2.16-1.22,3.14-3.18,3.67-6.49,1.76-12.93,2.89-19.14-.92-3.26-2-5.69-4.8-7.61-8.07-2.95-5.03-7.09-8.71-12.7-10.37-2.07-.61-4.44-.45-6.65-.32-1.35.08-1.79,1.18-.88,2.32.91,1.13,1.81,2.43,3.02,3.13,5.5,3.19,8.59,8.24,11.06,13.8,1.41,3.17,2.74,6.34,5.42,8.75,4.3,3.87,9.5,5.33,15.07,5.58,4.83.22,9.67.05,14.82.05,0,2.9-.01,6.29,0,9.67.01,2.6.1,5.2.09,7.81-.01,4.8-3.17,7.12-7.71,5.57-15.15-5.16-28.48-13.29-39.66-24.77-10.84-11.13-19.12-23.91-24.22-38.66-2.9-8.36-4.58-16.97-5.25-25.78-.06-.78-.21-1.56-.31-2.34,0-4,0-8.01,0-12.01Z"/>
  </g>
</svg>