<?xml version="1.0" encoding="UTF-8"?>
<svg id="Camada_2" data-name="Camada 2" xmlns="http://www.w3.org/2000/svg" xmlns:xlink="http://www.w3.org/1999/xlink" viewBox="0 0 199.99 200">
  <defs>
    <style>
      .cls-1 {
        fill: url(#Gradiente_sem_nome_15);
        stroke-width: 0px;
      }
    </style>
    <linearGradient id="Gradiente_sem_nome_15" data-name="Gradiente sem nome 15" x1="0" y1="100" x2="199.99" y2="100" gradientUnits="userSpaceOnUse">
      <stop offset="0" stop-color="#f0c"/>
      <stop offset="1" stop-color="#a259ff"/>
    </linearGradient>
  </defs>
  <g id="Camada_1-2" data-name="Camada 1">
    <path class="cls-1" d="M98.67,0c.83,0,1.67,0,2.5,0,.85.15,1.7.42,2.55.44,3.91.07,7.79.44,11.66,1.01,5.39.8,10.68,2,15.8,3.78,4.47,1.55,8.84,3.43,13.12,5.46,9.22,4.38,17.4,10.32,24.76,17.36,6.07,5.8,11.3,12.3,15.73,19.43,4.21,6.77,7.58,13.94,10.02,21.51,1.28,3.96,2.15,8.07,3.06,12.14,1.03,4.67,1.62,9.4,1.66,14.2.01,1.16.29,2.32.45,3.49v2.5c-.16,1.13-.38,2.25-.46,3.38-.19,2.56-.14,5.14-.51,7.67-.58,3.85-1.37,7.68-2.19,11.5-1.09,5.12-2.83,10.05-4.86,14.87-2.75,6.54-6.15,12.72-10.23,18.54-6.5,9.27-14.36,17.19-23.52,23.82-4.67,3.39-9.58,6.42-14.81,8.84-4.05,1.87-8.2,3.57-12.41,5.02-3.42,1.18-6.97,2.06-10.53,2.73-4.44.84-8.93,1.56-13.43,1.88-3.71.27-7.43.76-11.21.15-3.64-.59-7.36-.62-11.03-1.09-2.87-.37-5.71-.99-8.54-1.62-5.96-1.32-11.69-3.38-17.26-5.89-8.27-3.72-15.87-8.51-22.85-14.3-6.07-5.03-11.47-10.7-16.19-17-7.97-10.64-13.63-22.41-16.84-35.31-.91-3.65-1.48-7.38-2.13-11.08-.3-1.73-.47-3.5-.58-5.25C.21,105.12-.01,102.07,0,99.03c.01-2.59.23-5.2.56-7.77.56-4.49,1.09-8.99,1.99-13.42.7-3.44,1.89-6.79,2.95-10.15,1.93-6.14,4.71-11.92,7.89-17.49,3.85-6.74,8.42-13,13.86-18.55,3.37-3.44,6.98-6.66,10.67-9.76,5.81-4.89,12.31-8.75,19.16-12.03,7.06-3.37,14.41-5.86,22.08-7.44,5.09-1.05,10.2-1.83,15.41-1.98C95.93.41,97.3.15,98.67,0ZM109.92,86.94c0-3,0-5.81,0-8.62,0-1.56-.14-1.69-1.64-1.69-7.19,0-14.38,0-21.58,0-1.5,0-1.57.07-1.57,1.61,0,26.26,0,52.53,0,78.79,0,1.62.09,1.7,1.72,1.69,7.02-.01,14.04-.03,21.05-.04,1.98,0,2,0,2-2.05,0-13.83.01-27.65,0-41.48,0-2.23.15-4.42.73-6.58.82-3.09,2.13-5.9,4.7-7.9,3.99-3.1,8.52-3.72,13.37-2.65,4.73,1.05,7.25,4.36,8.64,8.68.96,2.99,1.13,6.11,1.12,9.25-.02,13.76-.01,27.51,0,41.27,0,1.37.11,1.48,1.37,1.48,7.43,0,14.87,0,22.3,0,1.97,0,2.03-.06,2.03-2.05,0-15.18-.02-30.36.02-45.54.01-5.48-.12-10.93-1.59-16.27-1-3.62-2.48-6.99-4.72-9.99-4.41-5.91-10.49-9.05-17.62-10.23-4.18-.69-8.38-.7-12.58.27-2.9.67-5.64,1.66-8.2,3.13-3.82,2.19-6.96,5.13-9.54,8.92ZM43.75,117.68c0,13.2,0,26.39,0,39.59,0,1.33.09,1.45,1.28,1.45,7.75,0,15.49-.03,23.24-.01.9,0,1.26-.32,1.25-1.21-.03-2.36-.01-4.72-.02-7.08-.05-24.13-.1-48.27-.15-72.4,0-1.37-.02-1.38-1.41-1.38-7.54,0-15.07,0-22.61,0-1.57,0-1.58.01-1.58,1.56,0,13.16,0,26.32,0,39.49ZM71.6,51.2c.11-8.36-6.66-15.37-15.19-15.31-8.34.06-15.07,6.65-15.06,15.23,0,8.82,6.68,15.27,15.14,15.35,8.51.07,15.21-7.05,15.12-15.27Z"/>
  </g>
</svg>